<?xml version="1.0" encoding="UTF-8"?>
<svg xmlns="http://www.w3.org/2000/svg" xmlns:xlink="http://www.w3.org/1999/xlink" width="700px" height="700px" viewBox="0 0 700 700" version="1.1">
<defs>
<clipPath id="clip1">
  <path d="M 73.6875 73.6875 L 626.3125 73.6875 L 626.3125 626.3125 L 73.6875 626.3125 Z M 73.6875 73.6875 "/>
</clipPath>
<linearGradient id="linear0" gradientUnits="userSpaceOnUse" x1="73.707298" y1="66.422203" x2="120.374001" y2="66.422203" gradientTransform="matrix(3.684211,0,0,3.684211,0,0)">
<stop offset="0.17" style="stop-color:rgb(100%,100%,100%);stop-opacity:1;"/>
<stop offset="0.84" style="stop-color:rgb(100%,100%,100%);stop-opacity:0;"/>
</linearGradient>
<linearGradient id="linear1" gradientUnits="userSpaceOnUse" x1="66.563202" y1="107.181" x2="128.751007" y2="107.181" gradientTransform="matrix(3.684211,0,0,3.684211,0,0)">
<stop offset="0.17" style="stop-color:rgb(100%,100%,100%);stop-opacity:1;"/>
<stop offset="0.84" style="stop-color:rgb(100%,100%,100%);stop-opacity:0;"/>
</linearGradient>
</defs>
<g id="surface1">
<g clip-path="url(#clip1)" clip-rule="nonzero">
<path style=" stroke:none;fill-rule:nonzero;fill:rgb(0%,2.745098%,72.549021%);fill-opacity:1;" d="M 350.019531 626.363281 C 502.640625 626.363281 626.363281 502.640625 626.363281 350.019531 C 626.363281 197.402344 502.640625 73.6875 350.019531 73.6875 C 197.402344 73.6875 73.6875 197.402344 73.6875 350.019531 C 73.6875 502.640625 197.402344 626.363281 350.019531 626.363281 Z M 350.019531 626.363281 "/>
</g>
<path style=" stroke:none;fill-rule:nonzero;fill:url(#linear0);" d="M 443.480469 257.324219 L 341.164062 210.953125 L 271.550781 227.125 L 271.550781 231.816406 L 359.363281 278.429688 Z M 443.480469 257.324219 "/>
<path style=" stroke:none;fill-rule:nonzero;fill:url(#linear1);" d="M 474.34375 406.113281 L 347.890625 347.941406 L 245.230469 375.628906 L 245.230469 382.40625 L 353.246094 441.863281 L 474.34375 406.210938 Z M 474.34375 406.113281 "/>
<path style=" stroke:none;fill-rule:nonzero;fill:rgb(100%,100%,100%);fill-opacity:1;" d="M 271.550781 231.816406 L 341.164062 215.59375 L 418.921875 197.539062 L 418.921875 150.496094 L 271.550781 182.933594 Z M 271.550781 231.816406 "/>
<path style=" stroke:none;fill-rule:nonzero;fill:rgb(100%,100%,100%);fill-opacity:1;" d="M 443.480469 257.324219 L 359.363281 278.429688 L 245.230469 307.070312 L 245.230469 382.3125 L 347.890625 354.621094 L 443.480469 328.828125 Z M 443.480469 257.324219 "/>
<path style=" stroke:none;fill-rule:nonzero;fill:rgb(100%,100%,100%);fill-opacity:1;" d="M 124.234375 509.242188 C 148.746094 543.957031 181.03125 572.832031 218.636719 593.175781 L 474.351562 510.1875 L 474.351562 406.210938 L 353.195312 441.863281 Z M 124.234375 509.242188 "/>
</g>
</svg>
