<?xml version="1.0" encoding="UTF-8"?>
<svg xmlns="http://www.w3.org/2000/svg" xmlns:xlink="http://www.w3.org/1999/xlink" width="40px" height="40px" viewBox="0 0 40 40" version="1.1">
<defs>
<clipPath id="clip1">
  <path d="M 4.210938 4.210938 L 35.789062 4.210938 L 35.789062 35.789062 L 4.210938 35.789062 Z M 4.210938 4.210938 "/>
</clipPath>
<linearGradient id="linear0" gradientUnits="userSpaceOnUse" x1="73.707298" y1="66.422203" x2="120.374001" y2="66.422203" gradientTransform="matrix(0.210526,0,0,0.210526,0,0)">
<stop offset="0.17" style="stop-color:rgb(100%,100%,100%);stop-opacity:1;"/>
<stop offset="0.84" style="stop-color:rgb(100%,100%,100%);stop-opacity:0;"/>
</linearGradient>
<linearGradient id="linear1" gradientUnits="userSpaceOnUse" x1="66.563202" y1="107.181" x2="128.751007" y2="107.181" gradientTransform="matrix(0.210526,0,0,0.210526,0,0)">
<stop offset="0.17" style="stop-color:rgb(100%,100%,100%);stop-opacity:1;"/>
<stop offset="0.84" style="stop-color:rgb(100%,100%,100%);stop-opacity:0;"/>
</linearGradient>
</defs>
<g id="surface1">
<g clip-path="url(#clip1)" clip-rule="nonzero">
<path style=" stroke:none;fill-rule:nonzero;fill:rgb(0%,2.745098%,72.549021%);fill-opacity:1;" d="M 20 35.792969 C 28.722656 35.792969 35.792969 28.722656 35.792969 20 C 35.792969 11.28125 28.722656 4.210938 20 4.210938 C 11.28125 4.210938 4.210938 11.28125 4.210938 20 C 4.210938 28.722656 11.28125 35.792969 20 35.792969 Z M 20 35.792969 "/>
</g>
<path style=" stroke:none;fill-rule:nonzero;fill:url(#linear0);" d="M 25.34375 14.703125 L 19.496094 12.054688 L 15.515625 12.976562 L 15.515625 13.246094 L 20.535156 15.910156 Z M 25.34375 14.703125 "/>
<path style=" stroke:none;fill-rule:nonzero;fill:url(#linear1);" d="M 27.105469 23.207031 L 19.878906 19.882812 L 14.011719 21.464844 L 14.011719 21.851562 L 20.1875 25.25 L 27.105469 23.210938 Z M 27.105469 23.207031 "/>
<path style=" stroke:none;fill-rule:nonzero;fill:rgb(100%,100%,100%);fill-opacity:1;" d="M 15.515625 13.246094 L 19.496094 12.320312 L 23.9375 11.289062 L 23.9375 8.601562 L 15.515625 10.453125 Z M 15.515625 13.246094 "/>
<path style=" stroke:none;fill-rule:nonzero;fill:rgb(100%,100%,100%);fill-opacity:1;" d="M 25.34375 14.703125 L 20.535156 15.910156 L 14.011719 17.546875 L 14.011719 21.847656 L 19.878906 20.265625 L 25.34375 18.789062 Z M 25.34375 14.703125 "/>
<path style=" stroke:none;fill-rule:nonzero;fill:rgb(100%,100%,100%);fill-opacity:1;" d="M 7.097656 29.097656 C 8.5 31.082031 10.34375 32.734375 12.492188 33.894531 L 27.105469 29.152344 L 27.105469 23.210938 L 20.183594 25.25 Z M 7.097656 29.097656 "/>
</g>
</svg>
