<?xml version="1.0" encoding="UTF-8"?>
<svg xmlns="http://www.w3.org/2000/svg" xmlns:xlink="http://www.w3.org/1999/xlink" width="384px" height="384px" viewBox="0 0 384 384" version="1.1">
<defs>
<clipPath id="clip1">
  <path d="M 40.421875 40.421875 L 343.578125 40.421875 L 343.578125 343.578125 L 40.421875 343.578125 Z M 40.421875 40.421875 "/>
</clipPath>
<linearGradient id="linear0" gradientUnits="userSpaceOnUse" x1="73.707298" y1="66.422203" x2="120.374001" y2="66.422203" gradientTransform="matrix(2.021053,0,0,2.021053,0,0)">
<stop offset="0.17" style="stop-color:rgb(100%,100%,100%);stop-opacity:1;"/>
<stop offset="0.84" style="stop-color:rgb(100%,100%,100%);stop-opacity:0;"/>
</linearGradient>
<linearGradient id="linear1" gradientUnits="userSpaceOnUse" x1="66.563202" y1="107.181" x2="128.751007" y2="107.181" gradientTransform="matrix(2.021053,0,0,2.021053,0,0)">
<stop offset="0.17" style="stop-color:rgb(100%,100%,100%);stop-opacity:1;"/>
<stop offset="0.84" style="stop-color:rgb(100%,100%,100%);stop-opacity:0;"/>
</linearGradient>
</defs>
<g id="surface1">
<g clip-path="url(#clip1)" clip-rule="nonzero">
<path style=" stroke:none;fill-rule:nonzero;fill:rgb(0%,2.745098%,72.549021%);fill-opacity:1;" d="M 192.011719 343.605469 C 275.734375 343.605469 343.605469 275.734375 343.605469 192.011719 C 343.605469 108.289062 275.734375 40.421875 192.011719 40.421875 C 108.289062 40.421875 40.421875 108.289062 40.421875 192.011719 C 40.421875 275.734375 108.289062 343.605469 192.011719 343.605469 Z M 192.011719 343.605469 "/>
</g>
<path style=" stroke:none;fill-rule:nonzero;fill:url(#linear0);" d="M 243.28125 141.160156 L 187.152344 115.722656 L 148.964844 124.59375 L 148.964844 127.167969 L 197.136719 152.738281 Z M 243.28125 141.160156 "/>
<path style=" stroke:none;fill-rule:nonzero;fill:url(#linear1);" d="M 260.210938 222.78125 L 190.84375 190.871094 L 134.527344 206.058594 L 134.527344 209.777344 L 193.78125 242.394531 L 260.210938 222.835938 Z M 260.210938 222.78125 "/>
<path style=" stroke:none;fill-rule:nonzero;fill:rgb(100%,100%,100%);fill-opacity:1;" d="M 148.964844 127.167969 L 187.152344 118.269531 L 229.808594 108.363281 L 229.808594 82.558594 L 148.964844 100.351562 Z M 148.964844 127.167969 "/>
<path style=" stroke:none;fill-rule:nonzero;fill:rgb(100%,100%,100%);fill-opacity:1;" d="M 243.28125 141.160156 L 197.136719 152.738281 L 134.527344 168.449219 L 134.527344 209.726562 L 190.84375 194.535156 L 243.28125 180.386719 Z M 243.28125 141.160156 "/>
<path style=" stroke:none;fill-rule:nonzero;fill:rgb(100%,100%,100%);fill-opacity:1;" d="M 68.152344 279.355469 C 81.597656 298.398438 99.308594 314.238281 119.9375 325.398438 L 260.214844 279.875 L 260.214844 222.835938 L 193.753906 242.394531 Z M 68.152344 279.355469 "/>
</g>
</svg>
